%FSLAX23Y23*%
%MOIN*%
G70*
G01*
G75*
G04 Layer_Color=65535*
%ADD10C,0.015*%
%ADD11C,0.010*%
%ADD12C,0.065*%
%ADD13C,0.075*%
%ADD14C,0.060*%
%ADD15C,0.070*%
%ADD16C,0.105*%
%ADD17C,0.140*%
%ADD18O,0.050X0.100*%
%ADD19C,0.055*%
%ADD20C,0.066*%
%ADD21R,0.059X0.059*%
%ADD22C,0.059*%
%ADD23R,0.050X0.100*%
%ADD24C,0.188*%
%ADD25C,0.187*%
%ADD26R,0.075X0.075*%
%ADD27R,0.065X0.065*%
%ADD28C,0.032*%
%ADD29C,0.008*%
%ADD30C,0.008*%
G36*
X5540Y3550D02*
X5521D01*
Y3566D01*
X5540D01*
Y3550D01*
D02*
G37*
G36*
X5590Y3589D02*
X5577D01*
X5576Y3589D01*
X5574Y3589D01*
X5573Y3588D01*
X5571Y3588D01*
X5570Y3587D01*
X5568Y3586D01*
X5568Y3586D01*
X5568Y3585D01*
X5567Y3585D01*
X5567Y3584D01*
X5566Y3583D01*
X5565Y3581D01*
X5565Y3580D01*
X5565Y3578D01*
Y3578D01*
Y3577D01*
Y3577D01*
X5565Y3577D01*
X5565Y3576D01*
X5565Y3575D01*
X5566Y3573D01*
X5566Y3572D01*
X5567Y3571D01*
X5569Y3569D01*
X5569Y3569D01*
X5569Y3569D01*
X5570Y3568D01*
X5571Y3568D01*
X5572Y3567D01*
X5574Y3567D01*
X5576Y3566D01*
X5577Y3566D01*
X5590D01*
Y3550D01*
X5571D01*
X5570Y3550D01*
X5569D01*
X5568Y3550D01*
X5567Y3550D01*
X5566Y3551D01*
X5564Y3551D01*
X5563Y3551D01*
X5561Y3552D01*
X5560Y3553D01*
X5558Y3553D01*
X5556Y3554D01*
X5555Y3555D01*
X5553Y3557D01*
X5552Y3558D01*
X5552Y3558D01*
X5551Y3558D01*
X5551Y3559D01*
X5551Y3560D01*
X5550Y3560D01*
X5549Y3561D01*
X5549Y3562D01*
X5548Y3564D01*
X5547Y3565D01*
X5547Y3566D01*
X5546Y3568D01*
X5545Y3570D01*
X5545Y3572D01*
X5545Y3574D01*
X5544Y3576D01*
X5544Y3578D01*
Y3578D01*
Y3578D01*
X5544Y3579D01*
Y3580D01*
X5545Y3581D01*
X5545Y3582D01*
X5545Y3583D01*
X5545Y3584D01*
X5546Y3586D01*
X5546Y3587D01*
X5547Y3589D01*
X5548Y3591D01*
X5549Y3592D01*
X5550Y3594D01*
X5551Y3595D01*
X5552Y3597D01*
X5552Y3597D01*
X5553Y3597D01*
X5553Y3598D01*
X5554Y3598D01*
X5555Y3599D01*
X5555Y3600D01*
X5556Y3600D01*
X5558Y3601D01*
X5559Y3602D01*
X5560Y3603D01*
X5562Y3603D01*
X5564Y3604D01*
X5565Y3604D01*
X5567Y3605D01*
X5569Y3605D01*
X5571Y3605D01*
X5590D01*
Y3589D01*
D02*
G37*
G36*
X5349Y3605D02*
X5367D01*
Y3589D01*
X5349D01*
Y3572D01*
Y3572D01*
Y3572D01*
Y3571D01*
X5349Y3571D01*
X5349Y3570D01*
X5349Y3569D01*
X5350Y3569D01*
X5350Y3568D01*
X5351Y3567D01*
X5351Y3567D01*
X5352Y3567D01*
X5353Y3566D01*
X5354Y3566D01*
X5355Y3566D01*
X5367D01*
Y3550D01*
X5348D01*
X5347Y3550D01*
X5347Y3550D01*
X5346Y3550D01*
X5344Y3551D01*
X5343Y3551D01*
X5340Y3552D01*
X5339Y3553D01*
X5338Y3553D01*
X5337Y3554D01*
X5336Y3555D01*
X5336Y3555D01*
X5336Y3555D01*
X5335Y3555D01*
X5335Y3556D01*
X5335Y3556D01*
X5334Y3557D01*
X5333Y3557D01*
X5333Y3558D01*
X5332Y3560D01*
X5331Y3562D01*
X5330Y3563D01*
X5330Y3565D01*
X5330Y3566D01*
X5330Y3567D01*
Y3621D01*
X5349D01*
Y3605D01*
D02*
G37*
G36*
X5474Y3589D02*
X5466D01*
X5465Y3589D01*
X5464Y3589D01*
X5463Y3588D01*
X5462Y3588D01*
X5461Y3587D01*
X5460Y3586D01*
X5460Y3586D01*
X5460Y3586D01*
X5459Y3585D01*
X5459Y3585D01*
X5458Y3584D01*
X5458Y3582D01*
X5458Y3581D01*
X5458Y3580D01*
Y3550D01*
X5439D01*
Y3585D01*
Y3585D01*
Y3585D01*
Y3585D01*
X5439Y3586D01*
X5439Y3587D01*
X5439Y3588D01*
X5439Y3588D01*
X5439Y3590D01*
X5440Y3592D01*
X5441Y3593D01*
X5441Y3594D01*
X5442Y3596D01*
X5443Y3597D01*
X5443Y3598D01*
X5444Y3599D01*
X5444Y3599D01*
X5445Y3599D01*
X5445Y3600D01*
X5445Y3600D01*
X5446Y3601D01*
X5446Y3601D01*
X5447Y3602D01*
X5448Y3602D01*
X5450Y3603D01*
X5452Y3604D01*
X5454Y3605D01*
X5455Y3605D01*
X5456Y3605D01*
X5458Y3605D01*
X5474D01*
Y3589D01*
D02*
G37*
G36*
X4539Y3550D02*
X4504Y3550D01*
X4503D01*
X4503Y3550D01*
X4502D01*
X4501Y3550D01*
X4500Y3550D01*
X4498Y3551D01*
X4496Y3551D01*
X4494Y3552D01*
X4492Y3553D01*
X4492D01*
X4492Y3553D01*
X4491Y3554D01*
X4490Y3555D01*
X4489Y3556D01*
X4488Y3557D01*
X4487Y3559D01*
X4486Y3561D01*
X4485Y3564D01*
Y3550D01*
X4468D01*
X4468Y3550D01*
X4467Y3550D01*
X4466Y3550D01*
X4465Y3550D01*
X4465Y3550D01*
X4462Y3551D01*
X4461Y3552D01*
X4460Y3552D01*
X4459Y3553D01*
X4458Y3554D01*
X4457Y3555D01*
X4456Y3556D01*
X4456Y3556D01*
X4456Y3556D01*
X4455Y3556D01*
X4455Y3557D01*
X4454Y3557D01*
X4454Y3558D01*
X4453Y3559D01*
X4453Y3560D01*
X4452Y3562D01*
X4451Y3564D01*
X4450Y3565D01*
X4450Y3567D01*
X4450Y3568D01*
X4450Y3569D01*
Y3605D01*
X4469D01*
Y3572D01*
Y3572D01*
Y3571D01*
X4469Y3571D01*
X4469Y3570D01*
X4469Y3569D01*
X4469Y3569D01*
X4470Y3568D01*
X4470Y3567D01*
X4471Y3567D01*
X4471Y3567D01*
X4471Y3567D01*
X4472Y3566D01*
X4472Y3566D01*
X4473Y3566D01*
X4474Y3566D01*
X4476Y3566D01*
X4485D01*
Y3605D01*
X4504D01*
X4504Y3572D01*
Y3572D01*
Y3572D01*
X4504Y3571D01*
Y3571D01*
X4504Y3570D01*
X4505Y3569D01*
X4505Y3568D01*
X4506Y3568D01*
X4506Y3567D01*
X4507Y3567D01*
X4508Y3566D01*
X4509Y3566D01*
X4510Y3566D01*
X4511Y3566D01*
X4520D01*
Y3605D01*
X4539D01*
Y3550D01*
D02*
G37*
G36*
X5324Y3550D02*
X5290D01*
X5289Y3550D01*
X5288Y3550D01*
X5287Y3550D01*
X5286Y3551D01*
X5285Y3551D01*
X5283Y3551D01*
X5281Y3552D01*
X5280Y3553D01*
X5279Y3553D01*
X5278Y3554D01*
X5276Y3555D01*
X5275Y3556D01*
X5275Y3556D01*
X5275Y3556D01*
X5274Y3557D01*
X5274Y3557D01*
X5274Y3558D01*
X5273Y3559D01*
X5272Y3559D01*
X5272Y3560D01*
X5271Y3561D01*
X5270Y3562D01*
X5270Y3564D01*
X5269Y3565D01*
X5269Y3566D01*
X5269Y3568D01*
X5269Y3570D01*
X5268Y3571D01*
Y3605D01*
X5287D01*
Y3575D01*
Y3575D01*
Y3574D01*
X5287Y3573D01*
X5287Y3572D01*
X5287Y3572D01*
X5288Y3571D01*
X5288Y3570D01*
X5289Y3569D01*
X5289Y3569D01*
X5289Y3568D01*
X5289Y3568D01*
X5290Y3567D01*
X5291Y3567D01*
X5292Y3567D01*
X5293Y3566D01*
X5295Y3566D01*
X5305D01*
Y3605D01*
X5324D01*
Y3550D01*
D02*
G37*
G36*
X4962Y3589D02*
X4949Y3571D01*
X4928D01*
X4941Y3589D01*
X4931D01*
X4930Y3589D01*
X4929Y3589D01*
X4927Y3588D01*
X4926Y3588D01*
X4924Y3587D01*
X4923Y3586D01*
X4923Y3586D01*
X4922Y3585D01*
X4922Y3585D01*
X4921Y3584D01*
X4921Y3583D01*
X4920Y3581D01*
X4920Y3580D01*
X4920Y3578D01*
Y3578D01*
Y3578D01*
Y3577D01*
X4920Y3577D01*
X4920Y3576D01*
X4920Y3575D01*
X4920Y3574D01*
X4921Y3572D01*
X4922Y3571D01*
X4923Y3569D01*
X4923Y3569D01*
X4924Y3569D01*
X4924Y3568D01*
X4925Y3568D01*
X4927Y3567D01*
X4928Y3567D01*
X4930Y3566D01*
X4932Y3566D01*
X4962D01*
Y3550D01*
X4929D01*
X4929Y3550D01*
X4928D01*
X4927Y3550D01*
X4926Y3550D01*
X4924Y3551D01*
X4923Y3551D01*
X4921Y3551D01*
X4919Y3552D01*
X4917Y3552D01*
X4916Y3553D01*
X4914Y3554D01*
X4912Y3555D01*
X4910Y3556D01*
X4908Y3557D01*
X4908Y3557D01*
X4908Y3558D01*
X4908Y3558D01*
X4907Y3559D01*
X4906Y3560D01*
X4905Y3560D01*
X4905Y3562D01*
X4904Y3563D01*
X4903Y3564D01*
X4902Y3566D01*
X4901Y3567D01*
X4900Y3569D01*
X4900Y3571D01*
X4899Y3573D01*
X4899Y3575D01*
X4899Y3578D01*
Y3578D01*
Y3578D01*
X4899Y3579D01*
X4899Y3580D01*
X4899Y3581D01*
X4899Y3582D01*
X4900Y3583D01*
X4900Y3584D01*
X4901Y3586D01*
X4901Y3587D01*
X4902Y3589D01*
X4903Y3590D01*
X4904Y3592D01*
X4905Y3594D01*
X4907Y3595D01*
X4908Y3597D01*
X4908Y3597D01*
X4909Y3597D01*
X4909Y3598D01*
X4910Y3598D01*
X4911Y3599D01*
X4912Y3599D01*
X4913Y3600D01*
X4914Y3601D01*
X4916Y3602D01*
X4918Y3603D01*
X4919Y3603D01*
X4921Y3604D01*
X4923Y3604D01*
X4926Y3605D01*
X4928Y3605D01*
X4930Y3605D01*
X4962D01*
Y3589D01*
D02*
G37*
G36*
X4639Y3550D02*
X4605Y3550D01*
X4604D01*
X4604Y3550D01*
X4603D01*
X4602Y3550D01*
X4601Y3550D01*
X4599Y3551D01*
X4597Y3551D01*
X4595Y3552D01*
X4593Y3553D01*
X4593D01*
X4593Y3553D01*
X4592Y3554D01*
X4591Y3555D01*
X4590Y3556D01*
X4589Y3557D01*
X4588Y3559D01*
X4587Y3561D01*
X4586Y3564D01*
Y3550D01*
X4569D01*
X4568Y3550D01*
X4568Y3550D01*
X4567Y3550D01*
X4566Y3550D01*
X4565Y3550D01*
X4563Y3551D01*
X4562Y3552D01*
X4561Y3552D01*
X4560Y3553D01*
X4559Y3554D01*
X4558Y3555D01*
X4557Y3556D01*
X4557Y3556D01*
X4556Y3556D01*
X4556Y3556D01*
X4556Y3557D01*
X4555Y3557D01*
X4555Y3558D01*
X4554Y3559D01*
X4554Y3560D01*
X4553Y3562D01*
X4552Y3564D01*
X4551Y3565D01*
X4551Y3567D01*
X4551Y3568D01*
X4551Y3569D01*
Y3605D01*
X4570D01*
Y3572D01*
Y3572D01*
Y3571D01*
X4570Y3571D01*
X4570Y3570D01*
X4570Y3569D01*
X4570Y3569D01*
X4571Y3568D01*
X4571Y3567D01*
X4571Y3567D01*
X4572Y3567D01*
X4572Y3567D01*
X4573Y3566D01*
X4573Y3566D01*
X4574Y3566D01*
X4575Y3566D01*
X4577Y3566D01*
X4586D01*
Y3605D01*
X4605D01*
X4605Y3572D01*
Y3572D01*
Y3572D01*
X4605Y3571D01*
Y3571D01*
X4605Y3570D01*
X4606Y3569D01*
X4606Y3568D01*
X4607Y3568D01*
X4607Y3567D01*
X4608Y3567D01*
X4609Y3566D01*
X4610Y3566D01*
X4611Y3566D01*
X4612Y3566D01*
X4621D01*
Y3605D01*
X4639D01*
Y3550D01*
D02*
G37*
G36*
X4740D02*
X4706Y3550D01*
X4705D01*
X4704Y3550D01*
X4704D01*
X4703Y3550D01*
X4702Y3550D01*
X4700Y3551D01*
X4698Y3551D01*
X4696Y3552D01*
X4694Y3553D01*
X4694D01*
X4694Y3553D01*
X4693Y3554D01*
X4692Y3555D01*
X4691Y3556D01*
X4690Y3557D01*
X4689Y3559D01*
X4688Y3561D01*
X4687Y3564D01*
Y3550D01*
X4670D01*
X4669Y3550D01*
X4669Y3550D01*
X4668Y3550D01*
X4667Y3550D01*
X4666Y3550D01*
X4664Y3551D01*
X4663Y3552D01*
X4662Y3552D01*
X4661Y3553D01*
X4660Y3554D01*
X4659Y3555D01*
X4658Y3556D01*
X4658Y3556D01*
X4657Y3556D01*
X4657Y3556D01*
X4657Y3557D01*
X4656Y3557D01*
X4656Y3558D01*
X4655Y3559D01*
X4655Y3560D01*
X4654Y3562D01*
X4653Y3564D01*
X4652Y3565D01*
X4652Y3567D01*
X4652Y3568D01*
X4652Y3569D01*
Y3605D01*
X4671D01*
Y3572D01*
Y3572D01*
Y3571D01*
X4671Y3571D01*
X4671Y3570D01*
X4671Y3569D01*
X4671Y3569D01*
X4672Y3568D01*
X4672Y3567D01*
X4672Y3567D01*
X4673Y3567D01*
X4673Y3567D01*
X4674Y3566D01*
X4674Y3566D01*
X4675Y3566D01*
X4676Y3566D01*
X4677Y3566D01*
X4687D01*
Y3605D01*
X4706D01*
X4706Y3572D01*
Y3572D01*
Y3572D01*
X4706Y3571D01*
Y3571D01*
X4706Y3570D01*
X4707Y3569D01*
X4707Y3568D01*
X4707Y3568D01*
X4708Y3567D01*
X4709Y3567D01*
X4709Y3566D01*
X4710Y3566D01*
X4711Y3566D01*
X4713Y3566D01*
X4722D01*
Y3605D01*
X4740D01*
Y3550D01*
D02*
G37*
G36*
X5239Y3605D02*
X5240D01*
X5241Y3605D01*
X5242Y3605D01*
X5243Y3604D01*
X5245Y3604D01*
X5246Y3604D01*
X5248Y3603D01*
X5249Y3602D01*
X5251Y3602D01*
X5252Y3601D01*
X5254Y3600D01*
X5255Y3598D01*
X5257Y3597D01*
X5257Y3597D01*
X5257Y3597D01*
X5258Y3596D01*
X5258Y3595D01*
X5259Y3595D01*
X5259Y3594D01*
X5260Y3593D01*
X5261Y3591D01*
X5262Y3590D01*
X5262Y3588D01*
X5263Y3587D01*
X5263Y3585D01*
X5264Y3583D01*
X5264Y3581D01*
X5265Y3579D01*
X5265Y3577D01*
Y3577D01*
Y3577D01*
X5265Y3576D01*
Y3575D01*
X5264Y3574D01*
X5264Y3573D01*
X5264Y3572D01*
X5264Y3570D01*
X5263Y3569D01*
X5263Y3567D01*
X5262Y3566D01*
X5261Y3564D01*
X5260Y3562D01*
X5259Y3561D01*
X5258Y3559D01*
X5257Y3558D01*
X5257Y3558D01*
X5257Y3557D01*
X5256Y3557D01*
X5255Y3557D01*
X5255Y3556D01*
X5254Y3555D01*
X5253Y3555D01*
X5252Y3554D01*
X5250Y3553D01*
X5249Y3552D01*
X5247Y3552D01*
X5246Y3551D01*
X5244Y3551D01*
X5242Y3550D01*
X5240Y3550D01*
X5238Y3550D01*
X5226D01*
Y3566D01*
X5232D01*
X5232Y3566D01*
X5233Y3566D01*
X5234Y3566D01*
X5236Y3567D01*
X5237Y3567D01*
X5239Y3568D01*
X5240Y3569D01*
X5241Y3569D01*
X5241Y3570D01*
X5242Y3570D01*
X5242Y3571D01*
X5243Y3572D01*
X5243Y3574D01*
X5244Y3575D01*
X5244Y3577D01*
Y3577D01*
Y3577D01*
Y3577D01*
X5244Y3578D01*
X5244Y3579D01*
X5244Y3580D01*
X5243Y3581D01*
X5243Y3582D01*
X5242Y3584D01*
X5241Y3585D01*
X5240Y3585D01*
X5240Y3586D01*
X5239Y3586D01*
X5238Y3587D01*
X5237Y3588D01*
X5235Y3588D01*
X5233Y3589D01*
X5231Y3589D01*
X5222D01*
Y3534D01*
X5203D01*
Y3605D01*
X5239D01*
X5239Y3605D01*
D02*
G37*
G36*
X5516Y3589D02*
X5500Y3589D01*
X5495D01*
X5494Y3589D01*
X5494D01*
X5493Y3589D01*
X5493Y3589D01*
X5492Y3588D01*
X5492Y3588D01*
X5492Y3588D01*
Y3588D01*
X5492Y3587D01*
X5492Y3587D01*
X5492Y3586D01*
X5492Y3586D01*
X5492Y3586D01*
X5493Y3586D01*
X5493Y3586D01*
X5493Y3586D01*
X5494Y3585D01*
X5494D01*
X5494Y3585D01*
X5495D01*
X5495Y3585D01*
X5496D01*
X5497Y3585D01*
X5499D01*
X5500Y3585D01*
X5504D01*
X5504Y3585D01*
X5505Y3585D01*
X5506Y3585D01*
X5507Y3584D01*
X5508Y3584D01*
X5510Y3583D01*
X5511Y3582D01*
X5512Y3581D01*
X5512Y3581D01*
X5513Y3581D01*
X5513Y3580D01*
X5514Y3579D01*
X5514Y3578D01*
X5515Y3577D01*
X5515Y3575D01*
X5516Y3574D01*
Y3574D01*
X5516Y3573D01*
X5516Y3573D01*
X5516Y3572D01*
Y3571D01*
X5516Y3570D01*
X5516Y3569D01*
Y3568D01*
Y3568D01*
Y3568D01*
Y3568D01*
Y3567D01*
X5516Y3565D01*
Y3565D01*
X5516Y3565D01*
X5516Y3564D01*
X5516Y3563D01*
X5516Y3562D01*
X5515Y3561D01*
X5515Y3560D01*
X5515Y3558D01*
Y3558D01*
X5514Y3558D01*
X5514Y3557D01*
X5514Y3557D01*
X5513Y3556D01*
X5513Y3555D01*
X5512Y3554D01*
X5511Y3553D01*
X5511Y3553D01*
X5511Y3553D01*
X5510Y3552D01*
X5509Y3552D01*
X5508Y3551D01*
X5507Y3551D01*
X5506Y3551D01*
X5505Y3550D01*
X5504Y3550D01*
X5503Y3550D01*
X5501Y3550D01*
X5478D01*
Y3566D01*
X5500D01*
X5501Y3566D01*
X5501Y3567D01*
X5502Y3567D01*
X5502Y3567D01*
X5502Y3567D01*
Y3567D01*
Y3567D01*
X5502Y3568D01*
X5502Y3569D01*
X5502Y3569D01*
X5502Y3569D01*
X5501Y3570D01*
X5501Y3570D01*
X5500Y3570D01*
X5500Y3570D01*
X5498Y3570D01*
X5495D01*
X5494Y3570D01*
X5493D01*
X5492Y3570D01*
X5491Y3570D01*
X5488Y3571D01*
X5487Y3571D01*
X5486Y3571D01*
X5485Y3571D01*
X5484Y3572D01*
X5483Y3572D01*
X5482Y3572D01*
X5482Y3573D01*
X5482Y3573D01*
X5481Y3573D01*
X5481Y3574D01*
X5480Y3575D01*
X5480Y3576D01*
X5479Y3577D01*
X5479Y3578D01*
Y3578D01*
X5478Y3579D01*
X5478Y3579D01*
X5478Y3580D01*
X5478Y3581D01*
X5478Y3583D01*
X5478Y3584D01*
X5478Y3585D01*
Y3586D01*
Y3586D01*
X5477Y3586D01*
Y3587D01*
Y3587D01*
Y3588D01*
X5478Y3589D01*
Y3590D01*
X5478Y3591D01*
X5478Y3593D01*
Y3594D01*
X5478Y3594D01*
X5478Y3595D01*
X5478Y3596D01*
X5479Y3597D01*
X5479Y3598D01*
X5480Y3599D01*
X5480Y3600D01*
X5480Y3600D01*
X5481Y3600D01*
X5481Y3600D01*
X5481Y3601D01*
X5482Y3602D01*
X5483Y3602D01*
X5484Y3603D01*
X5485Y3604D01*
X5485Y3604D01*
X5485Y3604D01*
X5486Y3604D01*
X5487Y3604D01*
X5488Y3605D01*
X5489Y3605D01*
X5490Y3605D01*
X5491Y3605D01*
X5492Y3605D01*
X5493Y3605D01*
X5494Y3605D01*
X5516D01*
Y3589D01*
D02*
G37*
G36*
X4768Y3550D02*
X4750D01*
Y3566D01*
X4768D01*
Y3550D01*
D02*
G37*
G36*
X5074Y3607D02*
X5075D01*
X5077Y3607D01*
X5078Y3607D01*
X5079Y3606D01*
X5081Y3606D01*
X5083Y3606D01*
X5084Y3605D01*
X5086Y3604D01*
X5088Y3604D01*
X5090Y3603D01*
X5092Y3602D01*
X5094Y3600D01*
X5096Y3599D01*
X5096Y3599D01*
X5096Y3598D01*
X5097Y3598D01*
X5097Y3597D01*
X5098Y3596D01*
X5099Y3595D01*
X5100Y3594D01*
X5101Y3593D01*
X5102Y3591D01*
X5103Y3590D01*
X5104Y3588D01*
X5105Y3586D01*
X5105Y3584D01*
X5106Y3582D01*
X5106Y3580D01*
X5106Y3577D01*
Y3577D01*
Y3577D01*
X5106Y3576D01*
X5106Y3575D01*
X5106Y3574D01*
X5106Y3573D01*
X5105Y3572D01*
X5105Y3570D01*
X5104Y3568D01*
X5104Y3567D01*
X5103Y3565D01*
X5102Y3563D01*
X5101Y3561D01*
X5099Y3559D01*
X5098Y3558D01*
X5096Y3556D01*
X5096Y3556D01*
X5096Y3556D01*
X5095Y3555D01*
X5094Y3555D01*
X5093Y3554D01*
X5092Y3554D01*
X5091Y3553D01*
X5090Y3552D01*
X5088Y3551D01*
X5086Y3551D01*
X5084Y3550D01*
X5082Y3549D01*
X5080Y3549D01*
X5078Y3549D01*
X5076Y3548D01*
X5073Y3548D01*
X5073D01*
X5072Y3548D01*
X5071D01*
X5070Y3548D01*
X5068Y3549D01*
X5067Y3549D01*
X5065Y3549D01*
X5063Y3550D01*
X5062Y3550D01*
X5060Y3551D01*
X5058Y3551D01*
X5056Y3552D01*
X5054Y3554D01*
X5052Y3555D01*
X5050Y3556D01*
X5050Y3556D01*
X5050Y3556D01*
X5049Y3557D01*
X5048Y3558D01*
X5048Y3559D01*
X5047Y3559D01*
X5046Y3561D01*
X5045Y3562D01*
X5044Y3563D01*
X5043Y3565D01*
X5042Y3567D01*
X5041Y3569D01*
X5041Y3571D01*
X5040Y3573D01*
X5040Y3575D01*
X5040Y3577D01*
Y3578D01*
Y3578D01*
X5040Y3579D01*
X5040Y3580D01*
X5040Y3581D01*
X5040Y3582D01*
X5041Y3583D01*
X5041Y3585D01*
X5042Y3587D01*
X5042Y3588D01*
X5043Y3590D01*
X5044Y3592D01*
X5045Y3594D01*
X5047Y3595D01*
X5048Y3597D01*
X5050Y3599D01*
X5050Y3599D01*
X5051Y3599D01*
X5051Y3600D01*
X5052Y3600D01*
X5053Y3601D01*
X5054Y3601D01*
X5055Y3602D01*
X5057Y3603D01*
X5058Y3604D01*
X5060Y3604D01*
X5062Y3605D01*
X5064Y3606D01*
X5066Y3606D01*
X5068Y3607D01*
X5071Y3607D01*
X5073Y3607D01*
X5074D01*
X5074Y3607D01*
D02*
G37*
G36*
X5628D02*
X5629D01*
X5630Y3607D01*
X5632Y3607D01*
X5633Y3606D01*
X5635Y3606D01*
X5637Y3606D01*
X5638Y3605D01*
X5640Y3604D01*
X5642Y3604D01*
X5644Y3603D01*
X5646Y3602D01*
X5648Y3600D01*
X5650Y3599D01*
X5650Y3599D01*
X5650Y3598D01*
X5651Y3598D01*
X5651Y3597D01*
X5652Y3596D01*
X5653Y3595D01*
X5654Y3594D01*
X5655Y3593D01*
X5656Y3591D01*
X5657Y3590D01*
X5658Y3588D01*
X5659Y3586D01*
X5659Y3584D01*
X5660Y3582D01*
X5660Y3580D01*
X5660Y3577D01*
Y3577D01*
Y3577D01*
X5660Y3576D01*
X5660Y3575D01*
X5660Y3574D01*
X5660Y3573D01*
X5659Y3572D01*
X5659Y3570D01*
X5658Y3568D01*
X5658Y3567D01*
X5657Y3565D01*
X5656Y3563D01*
X5655Y3561D01*
X5653Y3559D01*
X5652Y3558D01*
X5650Y3556D01*
X5650Y3556D01*
X5650Y3556D01*
X5649Y3555D01*
X5648Y3555D01*
X5647Y3554D01*
X5646Y3554D01*
X5645Y3553D01*
X5644Y3552D01*
X5642Y3551D01*
X5640Y3551D01*
X5638Y3550D01*
X5636Y3549D01*
X5634Y3549D01*
X5632Y3549D01*
X5630Y3548D01*
X5627Y3548D01*
X5627D01*
X5626Y3548D01*
X5625D01*
X5624Y3548D01*
X5622Y3549D01*
X5621Y3549D01*
X5619Y3549D01*
X5617Y3550D01*
X5616Y3550D01*
X5614Y3551D01*
X5612Y3551D01*
X5610Y3552D01*
X5608Y3554D01*
X5606Y3555D01*
X5604Y3556D01*
X5604Y3556D01*
X5604Y3556D01*
X5603Y3557D01*
X5602Y3558D01*
X5602Y3559D01*
X5601Y3559D01*
X5600Y3561D01*
X5599Y3562D01*
X5598Y3563D01*
X5597Y3565D01*
X5596Y3567D01*
X5595Y3569D01*
X5595Y3571D01*
X5594Y3573D01*
X5594Y3575D01*
X5594Y3577D01*
Y3578D01*
Y3578D01*
X5594Y3579D01*
X5594Y3580D01*
X5594Y3581D01*
X5594Y3582D01*
X5595Y3583D01*
X5595Y3585D01*
X5596Y3587D01*
X5596Y3588D01*
X5597Y3590D01*
X5598Y3592D01*
X5599Y3594D01*
X5601Y3595D01*
X5602Y3597D01*
X5604Y3599D01*
X5604Y3599D01*
X5605Y3599D01*
X5605Y3600D01*
X5606Y3600D01*
X5607Y3601D01*
X5608Y3601D01*
X5609Y3602D01*
X5611Y3603D01*
X5612Y3604D01*
X5614Y3604D01*
X5616Y3605D01*
X5618Y3606D01*
X5620Y3606D01*
X5622Y3607D01*
X5625Y3607D01*
X5627Y3607D01*
X5628D01*
X5628Y3607D01*
D02*
G37*
G36*
X4792Y3566D02*
X4803D01*
X4803Y3566D01*
X4804Y3566D01*
X4805Y3567D01*
X4807Y3567D01*
X4808Y3567D01*
X4809Y3568D01*
X4811Y3569D01*
X4811Y3570D01*
X4811Y3570D01*
X4812Y3571D01*
X4813Y3572D01*
X4813Y3573D01*
X4814Y3574D01*
X4814Y3576D01*
X4814Y3578D01*
Y3578D01*
Y3578D01*
X4814Y3578D01*
X4814Y3579D01*
X4814Y3581D01*
X4813Y3582D01*
X4813Y3583D01*
X4812Y3584D01*
X4811Y3586D01*
X4811Y3586D01*
X4810Y3586D01*
X4809Y3587D01*
X4808Y3587D01*
X4807Y3588D01*
X4806Y3588D01*
X4804Y3589D01*
X4803Y3589D01*
X4796D01*
Y3605D01*
X4809D01*
X4810Y3605D01*
X4811D01*
X4812Y3605D01*
X4813Y3605D01*
X4814Y3604D01*
X4815Y3604D01*
X4817Y3604D01*
X4818Y3603D01*
X4820Y3602D01*
X4821Y3602D01*
X4823Y3601D01*
X4825Y3600D01*
X4826Y3598D01*
X4827Y3597D01*
X4828Y3597D01*
X4828Y3597D01*
X4828Y3596D01*
X4829Y3596D01*
X4829Y3595D01*
X4830Y3594D01*
X4830Y3593D01*
X4831Y3592D01*
X4832Y3590D01*
X4832Y3589D01*
X4833Y3587D01*
X4834Y3586D01*
X4834Y3584D01*
X4834Y3582D01*
X4835Y3580D01*
X4835Y3578D01*
Y3578D01*
Y3578D01*
Y3577D01*
X4835Y3576D01*
X4835Y3575D01*
X4834Y3574D01*
X4834Y3573D01*
X4834Y3571D01*
X4833Y3570D01*
X4833Y3568D01*
X4832Y3567D01*
X4832Y3565D01*
X4831Y3564D01*
X4830Y3562D01*
X4829Y3560D01*
X4827Y3559D01*
X4827Y3559D01*
X4827Y3558D01*
X4827Y3558D01*
X4826Y3557D01*
X4825Y3557D01*
X4824Y3556D01*
X4823Y3555D01*
X4822Y3554D01*
X4821Y3554D01*
X4820Y3553D01*
X4818Y3552D01*
X4816Y3551D01*
X4815Y3551D01*
X4813Y3550D01*
X4811Y3550D01*
X4809Y3550D01*
X4773D01*
Y3621D01*
X4792D01*
Y3566D01*
D02*
G37*
G36*
X4986Y3550D02*
X4967D01*
Y3621D01*
X4986D01*
Y3550D01*
D02*
G37*
G36*
X5036Y3589D02*
X5023D01*
X5022Y3589D01*
X5020Y3589D01*
X5019Y3588D01*
X5017Y3588D01*
X5016Y3587D01*
X5014Y3586D01*
X5014Y3586D01*
X5014Y3585D01*
X5013Y3585D01*
X5013Y3584D01*
X5012Y3583D01*
X5011Y3581D01*
X5011Y3580D01*
X5011Y3578D01*
Y3578D01*
Y3577D01*
Y3577D01*
X5011Y3577D01*
X5011Y3576D01*
X5011Y3575D01*
X5012Y3573D01*
X5012Y3572D01*
X5013Y3571D01*
X5015Y3569D01*
X5015Y3569D01*
X5015Y3569D01*
X5016Y3568D01*
X5017Y3568D01*
X5018Y3567D01*
X5020Y3567D01*
X5022Y3566D01*
X5023Y3566D01*
X5036D01*
Y3550D01*
X5017D01*
X5016Y3550D01*
X5015D01*
X5014Y3550D01*
X5013Y3550D01*
X5012Y3551D01*
X5010Y3551D01*
X5009Y3551D01*
X5007Y3552D01*
X5006Y3553D01*
X5004Y3553D01*
X5002Y3554D01*
X5001Y3555D01*
X4999Y3557D01*
X4998Y3558D01*
X4998Y3558D01*
X4998Y3558D01*
X4997Y3559D01*
X4997Y3560D01*
X4996Y3560D01*
X4995Y3561D01*
X4995Y3562D01*
X4994Y3564D01*
X4993Y3565D01*
X4993Y3566D01*
X4992Y3568D01*
X4991Y3570D01*
X4991Y3572D01*
X4991Y3574D01*
X4990Y3576D01*
X4990Y3578D01*
Y3578D01*
Y3578D01*
X4990Y3579D01*
Y3580D01*
X4991Y3581D01*
X4991Y3582D01*
X4991Y3583D01*
X4991Y3584D01*
X4992Y3586D01*
X4992Y3587D01*
X4993Y3589D01*
X4994Y3591D01*
X4995Y3592D01*
X4996Y3594D01*
X4997Y3595D01*
X4998Y3597D01*
X4998Y3597D01*
X4999Y3597D01*
X4999Y3598D01*
X5000Y3598D01*
X5001Y3599D01*
X5001Y3600D01*
X5003Y3600D01*
X5004Y3601D01*
X5005Y3602D01*
X5006Y3603D01*
X5008Y3603D01*
X5010Y3604D01*
X5011Y3604D01*
X5013Y3605D01*
X5015Y3605D01*
X5017Y3605D01*
X5036D01*
Y3589D01*
D02*
G37*
G36*
X4874D02*
X4866D01*
X4865Y3589D01*
X4864Y3589D01*
X4863Y3588D01*
X4862Y3588D01*
X4861Y3587D01*
X4860Y3586D01*
X4860Y3586D01*
X4860Y3586D01*
X4859Y3585D01*
X4859Y3585D01*
X4858Y3584D01*
X4858Y3582D01*
X4858Y3581D01*
X4857Y3580D01*
Y3550D01*
X4839D01*
Y3585D01*
Y3585D01*
Y3585D01*
Y3585D01*
X4839Y3586D01*
X4839Y3587D01*
X4839Y3588D01*
X4839Y3588D01*
X4839Y3590D01*
X4840Y3592D01*
X4840Y3593D01*
X4841Y3594D01*
X4842Y3596D01*
X4842Y3597D01*
X4843Y3598D01*
X4844Y3599D01*
X4844Y3599D01*
X4844Y3599D01*
X4845Y3600D01*
X4845Y3600D01*
X4846Y3601D01*
X4846Y3601D01*
X4847Y3602D01*
X4848Y3602D01*
X4850Y3603D01*
X4852Y3604D01*
X4853Y3605D01*
X4855Y3605D01*
X4856Y3605D01*
X4857Y3605D01*
X4874D01*
Y3589D01*
D02*
G37*
G36*
X4895Y3550D02*
X4877D01*
Y3601D01*
X4895D01*
Y3550D01*
D02*
G37*
G36*
X5208Y3741D02*
Y3693D01*
X5200Y3686D01*
X5160D01*
Y3654D01*
X5192D01*
Y3670D01*
X5208D01*
Y3646D01*
X5200Y3638D01*
X5121D01*
X5113Y3646D01*
Y3741D01*
X5121Y3749D01*
X5200D01*
X5208Y3741D01*
D02*
G37*
G36*
X5303Y3733D02*
X5256D01*
Y3709D01*
X5271Y3694D01*
Y3646D01*
X5263Y3638D01*
X5232D01*
X5224Y3646D01*
Y3741D01*
X5232Y3749D01*
X5303D01*
Y3733D01*
D02*
G37*
G36*
X4988Y3741D02*
Y3693D01*
X4980Y3686D01*
X4941D01*
Y3654D01*
X4973D01*
Y3670D01*
X4988D01*
Y3646D01*
X4980Y3638D01*
X4902D01*
X4893Y3646D01*
Y3741D01*
X4901Y3749D01*
X4980D01*
X4988Y3741D01*
D02*
G37*
G36*
X5098Y3765D02*
X5067D01*
Y3741D01*
X5082Y3725D01*
Y3646D01*
X5074Y3638D01*
X5043D01*
X5035Y3646D01*
Y3765D01*
X5003D01*
Y3781D01*
X5098D01*
Y3765D01*
D02*
G37*
G36*
X5689Y3772D02*
Y3741D01*
X5705Y3725D01*
Y3646D01*
X5696Y3638D01*
X5665D01*
X5657Y3646D01*
Y3772D01*
X5665Y3781D01*
X5681D01*
X5689Y3772D01*
D02*
G37*
G36*
X4767Y3741D02*
Y3717D01*
X4752D01*
Y3733D01*
X4704D01*
Y3709D01*
X4719Y3694D01*
Y3654D01*
X4752D01*
Y3670D01*
X4767D01*
Y3646D01*
X4759Y3638D01*
X4680D01*
X4672Y3646D01*
Y3741D01*
X4680Y3749D01*
X4759D01*
X4767Y3741D01*
D02*
G37*
G36*
X5472D02*
Y3638D01*
X5456D01*
Y3733D01*
X5408D01*
Y3709D01*
X5424Y3694D01*
Y3646D01*
X5416Y3638D01*
X5401D01*
X5393Y3646D01*
Y3733D01*
X5345D01*
Y3709D01*
X5361Y3694D01*
Y3646D01*
X5352Y3638D01*
X5321D01*
X5313Y3646D01*
Y3741D01*
X5321Y3749D01*
X5463D01*
X5472Y3741D01*
D02*
G37*
G36*
X5624Y3772D02*
Y3741D01*
X5639Y3725D01*
Y3646D01*
X5631Y3638D01*
X5600D01*
X5592Y3646D01*
Y3772D01*
X5600Y3781D01*
X5616D01*
X5624Y3772D01*
D02*
G37*
G36*
X4814D02*
Y3701D01*
X4846D01*
Y3749D01*
X4862D01*
Y3709D01*
X4877Y3694D01*
Y3638D01*
X4862D01*
Y3686D01*
X4830D01*
Y3646D01*
X4821Y3638D01*
X4790D01*
X4782Y3646D01*
Y3772D01*
X4790Y3781D01*
X4806D01*
X4814Y3772D01*
D02*
G37*
G36*
X5735Y3605D02*
X5735Y3605D01*
X5736Y3605D01*
X5737Y3605D01*
X5738Y3604D01*
X5740Y3604D01*
X5741Y3603D01*
X5742Y3603D01*
X5743Y3602D01*
X5744Y3601D01*
X5745Y3600D01*
X5747Y3599D01*
X5747Y3599D01*
X5747Y3599D01*
X5747Y3598D01*
X5747Y3598D01*
X5748Y3597D01*
X5748Y3597D01*
X5749Y3596D01*
X5750Y3595D01*
X5751Y3593D01*
X5752Y3591D01*
X5752Y3589D01*
X5752Y3588D01*
X5752Y3587D01*
X5752Y3585D01*
Y3550D01*
X5734D01*
Y3583D01*
Y3583D01*
Y3583D01*
X5734Y3584D01*
X5734Y3585D01*
X5733Y3585D01*
X5733Y3586D01*
X5733Y3587D01*
X5732Y3588D01*
X5732Y3588D01*
X5732Y3588D01*
X5731Y3588D01*
X5731Y3588D01*
X5730Y3589D01*
X5729Y3589D01*
X5728Y3589D01*
X5727Y3589D01*
X5717D01*
Y3550D01*
X5699D01*
X5699Y3583D01*
Y3583D01*
Y3583D01*
Y3583D01*
X5698Y3584D01*
X5698Y3585D01*
X5698Y3586D01*
X5697Y3587D01*
X5697Y3587D01*
X5696Y3588D01*
X5696Y3588D01*
X5695Y3588D01*
X5694Y3589D01*
X5693Y3589D01*
X5691Y3589D01*
X5682D01*
Y3550D01*
X5664D01*
Y3605D01*
X5699D01*
X5700Y3605D01*
X5700D01*
X5701Y3605D01*
X5703Y3605D01*
X5705Y3604D01*
X5707Y3604D01*
X5709Y3603D01*
X5710Y3602D01*
X5711D01*
X5711Y3601D01*
X5711Y3601D01*
X5712Y3600D01*
X5713Y3599D01*
X5714Y3597D01*
X5715Y3596D01*
X5717Y3593D01*
X5717Y3591D01*
Y3605D01*
X5734D01*
X5735Y3605D01*
D02*
G37*
G36*
X4895Y3605D02*
X4877D01*
Y3621D01*
X4895D01*
Y3605D01*
D02*
G37*
G36*
X5433Y3589D02*
X5421Y3571D01*
X5399D01*
X5413Y3589D01*
X5402D01*
X5401Y3589D01*
X5400Y3589D01*
X5399Y3588D01*
X5397Y3588D01*
X5396Y3587D01*
X5394Y3586D01*
X5394Y3586D01*
X5394Y3585D01*
X5393Y3585D01*
X5393Y3584D01*
X5392Y3583D01*
X5392Y3581D01*
X5391Y3580D01*
X5391Y3578D01*
Y3578D01*
Y3578D01*
Y3577D01*
X5391Y3577D01*
X5391Y3576D01*
X5391Y3575D01*
X5392Y3574D01*
X5392Y3572D01*
X5393Y3571D01*
X5395Y3569D01*
X5395Y3569D01*
X5395Y3569D01*
X5396Y3568D01*
X5397Y3568D01*
X5398Y3567D01*
X5400Y3567D01*
X5401Y3566D01*
X5403Y3566D01*
X5433D01*
Y3550D01*
X5401D01*
X5400Y3550D01*
X5399D01*
X5398Y3550D01*
X5397Y3550D01*
X5396Y3551D01*
X5394Y3551D01*
X5392Y3551D01*
X5391Y3552D01*
X5389Y3552D01*
X5387Y3553D01*
X5385Y3554D01*
X5383Y3555D01*
X5382Y3556D01*
X5380Y3557D01*
X5380Y3557D01*
X5380Y3558D01*
X5379Y3558D01*
X5378Y3559D01*
X5378Y3560D01*
X5377Y3560D01*
X5376Y3562D01*
X5375Y3563D01*
X5374Y3564D01*
X5373Y3566D01*
X5373Y3567D01*
X5372Y3569D01*
X5371Y3571D01*
X5371Y3573D01*
X5371Y3575D01*
X5370Y3578D01*
Y3578D01*
Y3578D01*
X5371Y3579D01*
X5371Y3580D01*
X5371Y3581D01*
X5371Y3582D01*
X5371Y3583D01*
X5372Y3584D01*
X5372Y3586D01*
X5373Y3587D01*
X5374Y3589D01*
X5374Y3590D01*
X5375Y3592D01*
X5377Y3594D01*
X5378Y3595D01*
X5380Y3597D01*
X5380Y3597D01*
X5380Y3597D01*
X5381Y3598D01*
X5381Y3598D01*
X5382Y3599D01*
X5383Y3599D01*
X5385Y3600D01*
X5386Y3601D01*
X5387Y3602D01*
X5389Y3603D01*
X5391Y3603D01*
X5393Y3604D01*
X5395Y3604D01*
X5397Y3605D01*
X5399Y3605D01*
X5402Y3605D01*
X5433D01*
Y3589D01*
D02*
G37*
G36*
X5181Y3605D02*
X5181Y3605D01*
X5182Y3605D01*
X5183Y3605D01*
X5184Y3604D01*
X5186Y3604D01*
X5187Y3603D01*
X5188Y3603D01*
X5189Y3602D01*
X5190Y3601D01*
X5191Y3600D01*
X5193Y3599D01*
X5193Y3599D01*
X5193Y3599D01*
X5193Y3598D01*
X5194Y3598D01*
X5194Y3597D01*
X5194Y3597D01*
X5195Y3596D01*
X5196Y3595D01*
X5197Y3593D01*
X5198Y3591D01*
X5198Y3589D01*
X5198Y3588D01*
X5198Y3587D01*
X5199Y3585D01*
Y3550D01*
X5180D01*
Y3583D01*
Y3583D01*
Y3583D01*
X5180Y3584D01*
X5180Y3585D01*
X5179Y3585D01*
X5179Y3586D01*
X5179Y3587D01*
X5178Y3588D01*
X5178Y3588D01*
X5178Y3588D01*
X5177Y3588D01*
X5177Y3588D01*
X5176Y3589D01*
X5175Y3589D01*
X5174Y3589D01*
X5173Y3589D01*
X5163D01*
Y3550D01*
X5145D01*
X5145Y3583D01*
Y3583D01*
Y3583D01*
Y3583D01*
X5144Y3584D01*
X5144Y3585D01*
X5144Y3586D01*
X5143Y3587D01*
X5143Y3587D01*
X5142Y3588D01*
X5142Y3588D01*
X5141Y3588D01*
X5140Y3589D01*
X5139Y3589D01*
X5137Y3589D01*
X5128D01*
Y3550D01*
X5110D01*
Y3605D01*
X5145D01*
X5146Y3605D01*
X5146D01*
X5147Y3605D01*
X5149Y3605D01*
X5151Y3604D01*
X5153Y3604D01*
X5155Y3603D01*
X5157Y3602D01*
X5157D01*
X5157Y3601D01*
X5157Y3601D01*
X5158Y3600D01*
X5159Y3599D01*
X5160Y3597D01*
X5162Y3596D01*
X5163Y3593D01*
X5163Y3591D01*
Y3605D01*
X5180D01*
X5181Y3605D01*
D02*
G37*
G36*
X4656Y3741D02*
Y3646D01*
X4647Y3638D01*
X4569D01*
X4561Y3646D01*
Y3741D01*
X4569Y3749D01*
X4647D01*
X4656Y3741D01*
D02*
G37*
G36*
X4545Y3772D02*
Y3726D01*
X4537Y3717D01*
X4497D01*
Y3646D01*
X4489Y3638D01*
X4458D01*
X4450Y3646D01*
Y3772D01*
X4458Y3781D01*
X4537D01*
X4545Y3772D01*
D02*
G37*
%LPC*%
G36*
X5192Y3733D02*
X5145D01*
Y3701D01*
X5192D01*
Y3733D01*
D02*
G37*
G36*
X4529Y3765D02*
X4482D01*
Y3733D01*
X4529D01*
Y3765D01*
D02*
G37*
G36*
X4973Y3733D02*
X4925D01*
Y3701D01*
X4973D01*
Y3733D01*
D02*
G37*
G36*
X5627Y3591D02*
X5627D01*
X5626Y3591D01*
X5625Y3591D01*
X5624Y3590D01*
X5623Y3590D01*
X5621Y3589D01*
X5620Y3588D01*
X5618Y3587D01*
X5618Y3587D01*
X5618Y3586D01*
X5617Y3586D01*
X5616Y3585D01*
X5616Y3583D01*
X5615Y3581D01*
X5615Y3580D01*
X5614Y3577D01*
Y3577D01*
Y3577D01*
Y3577D01*
X5614Y3577D01*
X5615Y3575D01*
X5615Y3574D01*
X5615Y3573D01*
X5616Y3571D01*
X5617Y3569D01*
X5618Y3568D01*
X5618Y3568D01*
X5619Y3567D01*
X5619Y3567D01*
X5620Y3566D01*
X5622Y3565D01*
X5623Y3565D01*
X5625Y3564D01*
X5627Y3564D01*
X5628D01*
X5628Y3564D01*
X5629Y3564D01*
X5630Y3565D01*
X5632Y3565D01*
X5633Y3566D01*
X5635Y3567D01*
X5636Y3568D01*
X5636Y3568D01*
X5637Y3569D01*
X5637Y3569D01*
X5638Y3570D01*
X5639Y3572D01*
X5639Y3573D01*
X5639Y3575D01*
X5640Y3577D01*
Y3578D01*
Y3578D01*
Y3578D01*
X5640Y3578D01*
X5639Y3580D01*
X5639Y3581D01*
X5639Y3582D01*
X5638Y3584D01*
X5637Y3586D01*
X5636Y3587D01*
X5636Y3587D01*
X5635Y3588D01*
X5635Y3588D01*
X5634Y3589D01*
X5632Y3590D01*
X5631Y3590D01*
X5629Y3591D01*
X5627Y3591D01*
D02*
G37*
G36*
X5073D02*
X5073D01*
X5072Y3591D01*
X5071Y3591D01*
X5070Y3590D01*
X5069Y3590D01*
X5067Y3589D01*
X5066Y3588D01*
X5064Y3587D01*
X5064Y3587D01*
X5064Y3586D01*
X5063Y3586D01*
X5062Y3585D01*
X5062Y3583D01*
X5061Y3581D01*
X5061Y3580D01*
X5060Y3577D01*
Y3577D01*
Y3577D01*
Y3577D01*
X5061Y3577D01*
X5061Y3575D01*
X5061Y3574D01*
X5061Y3573D01*
X5062Y3571D01*
X5063Y3569D01*
X5064Y3568D01*
X5064Y3568D01*
X5065Y3567D01*
X5065Y3567D01*
X5067Y3566D01*
X5068Y3565D01*
X5069Y3565D01*
X5071Y3564D01*
X5073Y3564D01*
X5074D01*
X5074Y3564D01*
X5075Y3564D01*
X5076Y3565D01*
X5078Y3565D01*
X5079Y3566D01*
X5081Y3567D01*
X5082Y3568D01*
X5082Y3568D01*
X5083Y3569D01*
X5083Y3569D01*
X5084Y3570D01*
X5085Y3572D01*
X5085Y3573D01*
X5085Y3575D01*
X5086Y3577D01*
Y3578D01*
Y3578D01*
Y3578D01*
X5086Y3578D01*
X5085Y3580D01*
X5085Y3581D01*
X5085Y3582D01*
X5084Y3584D01*
X5083Y3586D01*
X5082Y3587D01*
X5082Y3587D01*
X5081Y3588D01*
X5081Y3588D01*
X5080Y3589D01*
X5078Y3590D01*
X5077Y3590D01*
X5075Y3591D01*
X5073Y3591D01*
D02*
G37*
G36*
X4640Y3733D02*
X4593D01*
Y3709D01*
X4608Y3694D01*
Y3654D01*
X4640D01*
Y3733D01*
D02*
G37*
%LPD*%
D11*
X3300Y4175D02*
G03*
X3300Y4225I0J25D01*
G01*
X2750Y4325D02*
G03*
X2750Y4375I0J25D01*
G01*
X3504Y5850D02*
G03*
X3504Y5850I-102J0D01*
G01*
X4510Y4725D02*
G03*
X4786Y4725I138J-24D01*
G01*
X3300Y4925D02*
G03*
X3300Y4975I0J25D01*
G01*
X4150Y5375D02*
Y5985D01*
Y5205D02*
Y5385D01*
X3550Y5205D02*
X4150D01*
X3550D02*
Y5985D01*
X4150D01*
X2690Y3525D02*
X3110D01*
X2690Y3530D02*
Y4010D01*
X3110D01*
Y3530D02*
Y4010D01*
X3300Y3985D02*
Y4175D01*
Y4225D02*
Y4415D01*
X5300D01*
Y3985D02*
Y4415D01*
X3300Y3985D02*
X5300D01*
X4030Y4710D02*
X4470D01*
X4030Y4570D02*
Y4710D01*
X4470Y4570D02*
Y4710D01*
X4030Y4570D02*
X4470D01*
X2750Y4285D02*
Y4325D01*
Y4375D02*
Y4415D01*
X3150D01*
Y4285D02*
Y4415D01*
X2750Y4285D02*
X3150D01*
X4675Y5271D02*
Y5461D01*
X4474Y5271D02*
Y5461D01*
X4564Y5271D02*
Y5461D01*
X4574Y5271D02*
Y5461D01*
X4584Y5271D02*
Y5461D01*
X4510Y4725D02*
X4786D01*
X3300Y4885D02*
Y4925D01*
Y4975D02*
Y5015D01*
X4100D01*
Y4885D02*
Y5015D01*
X3300Y4885D02*
X4100D01*
X2810Y5760D02*
Y5940D01*
Y5760D02*
X3210D01*
Y5940D01*
X2810D02*
X3210D01*
X2690Y4030D02*
Y4090D01*
X2720D01*
X2730Y4080D01*
Y4060D01*
X2720Y4050D01*
X2690D01*
X2790Y4080D02*
X2780Y4090D01*
X2760D01*
X2750Y4080D01*
Y4070D01*
X2760Y4060D01*
X2780D01*
X2790Y4050D01*
Y4040D01*
X2780Y4030D01*
X2760D01*
X2750Y4040D01*
X2810Y4030D02*
X2850Y4070D01*
X2910Y4030D02*
X2870D01*
X2910Y4070D01*
Y4080D01*
X2900Y4090D01*
X2880D01*
X2870Y4080D01*
X2845Y5725D02*
X2825D01*
X2815Y5715D01*
Y5675D01*
X2825Y5665D01*
X2845D01*
X2855Y5675D01*
Y5715D01*
X2845Y5725D01*
X2875Y5665D02*
Y5725D01*
X2915Y5665D01*
Y5725D01*
X3085D02*
X3065D01*
X3055Y5715D01*
Y5675D01*
X3065Y5665D01*
X3085D01*
X3095Y5675D01*
Y5715D01*
X3085Y5725D01*
X3155D02*
X3115D01*
Y5695D01*
X3135D01*
X3115D01*
Y5665D01*
X3215Y5725D02*
X3175D01*
Y5695D01*
X3195D01*
X3175D01*
Y5665D01*
X3350Y5270D02*
Y5220D01*
X3360Y5210D01*
X3380D01*
X3390Y5220D01*
Y5270D01*
X3450Y5260D02*
X3440Y5270D01*
X3420D01*
X3410Y5260D01*
Y5250D01*
X3420Y5240D01*
X3440D01*
X3450Y5230D01*
Y5220D01*
X3440Y5210D01*
X3420D01*
X3410Y5220D01*
X3470Y5270D02*
Y5210D01*
X3500D01*
X3510Y5220D01*
Y5230D01*
X3500Y5240D01*
X3470D01*
X3500D01*
X3510Y5250D01*
Y5260D01*
X3500Y5270D01*
X3470D01*
X6000Y3500D02*
Y6000D01*
X2500D02*
X6000D01*
X2500Y3500D02*
Y6000D01*
Y3500D02*
X6000D01*
D29*
X3199Y4800D02*
G03*
X3199Y4800I-110J0D01*
G01*
X2849D02*
G03*
X2849Y4800I-110J0D01*
G01*
X3199Y5100D02*
G03*
X3199Y5100I-110J0D01*
G01*
X2849D02*
G03*
X2849Y5100I-110J0D01*
G01*
X4744Y6000D02*
G03*
X4771Y6028I0J27D01*
G01*
X4799Y6236D02*
G03*
X4771Y6209I0J-27D01*
G01*
X5469Y6028D02*
G03*
X5496Y6000I27J0D01*
G01*
X5469Y6209D02*
G03*
X5441Y6236I-27J0D01*
G01*
X2849Y5400D02*
G03*
X2849Y5400I-110J0D01*
G01*
X3820Y3660D02*
Y3740D01*
X3580Y3660D02*
X3820D01*
X3580D02*
Y3740D01*
X3820D01*
Y3700D02*
X3860D01*
X3540D02*
X3580D01*
X3030Y4860D02*
X3070D01*
X3050Y4840D02*
Y4880D01*
X2680Y4860D02*
X2720D01*
X2700Y4840D02*
Y4880D01*
X3030Y5160D02*
X3070D01*
X3050Y5140D02*
Y5180D01*
X2680Y5160D02*
X2720D01*
X2700Y5140D02*
Y5180D01*
X3270Y5360D02*
Y5440D01*
X3030Y5360D02*
X3270D01*
X3030D02*
Y5440D01*
X3270D01*
Y5400D02*
X3310D01*
X2990D02*
X3030D01*
X4514Y5882D02*
X5726D01*
Y5512D02*
Y6000D01*
X4514Y5512D02*
Y6000D01*
X4799Y6236D02*
X5441D01*
X4514Y5512D02*
X5726D01*
X5396D02*
Y5882D01*
X4514Y6000D02*
X5726D01*
X4844Y5512D02*
Y5882D01*
X4771Y6028D02*
Y6209D01*
X5469Y6028D02*
Y6209D01*
X3630Y4610D02*
Y4690D01*
X3870D01*
Y4610D02*
Y4690D01*
X3630Y4610D02*
X3870D01*
X3590Y4650D02*
X3630D01*
X3870D02*
X3910D01*
X4670Y4935D02*
Y5015D01*
X4430Y4935D02*
X4670D01*
X4430D02*
Y5015D01*
X4670D01*
Y4975D02*
X4710D01*
X4390D02*
X4430D01*
X3540Y3600D02*
X3580D01*
X3820D02*
X3860D01*
X3580Y3640D02*
X3820D01*
X3580Y3560D02*
Y3640D01*
Y3560D02*
X3820D01*
Y3640D01*
X4890Y4975D02*
X4930D01*
X5170D02*
X5210D01*
X4930Y5015D02*
X5170D01*
X4930Y4935D02*
Y5015D01*
Y4935D02*
X5170D01*
Y5015D01*
Y4835D02*
Y4915D01*
X4930Y4835D02*
X5170D01*
X4930D02*
Y4915D01*
X5170D01*
Y4875D02*
X5210D01*
X4890D02*
X4930D01*
X5170Y4675D02*
X5210D01*
X4890D02*
X4930D01*
Y4635D02*
X5170D01*
Y4715D01*
X4930D02*
X5170D01*
X4930Y4635D02*
Y4715D01*
X5170Y5075D02*
X5210D01*
X4890D02*
X4930D01*
Y5035D02*
X5170D01*
Y5115D01*
X4930D02*
X5170D01*
X4930Y5035D02*
Y5115D01*
Y5135D02*
Y5215D01*
X5170D01*
Y5135D02*
Y5215D01*
X4930Y5135D02*
X5170D01*
X4890Y5175D02*
X4930D01*
X5170D02*
X5210D01*
X5170Y5275D02*
X5210D01*
X4890D02*
X4930D01*
Y5235D02*
X5170D01*
Y5315D01*
X4930D02*
X5170D01*
X4930Y5235D02*
Y5315D01*
X5170Y5375D02*
X5210D01*
X4890D02*
X4930D01*
Y5335D02*
X5170D01*
Y5415D01*
X4930D02*
X5170D01*
X4930Y5335D02*
Y5415D01*
X4390Y4875D02*
X4430D01*
X4670D02*
X4710D01*
X4430Y4915D02*
X4670D01*
X4430Y4835D02*
Y4915D01*
Y4835D02*
X4670D01*
Y4915D01*
X4774Y5266D02*
Y5466D01*
X4374Y5266D02*
Y5466D01*
X4774D01*
X4374Y5266D02*
X4774D01*
X2680Y5460D02*
X2720D01*
X2700Y5440D02*
Y5480D01*
X5170Y4775D02*
X5210D01*
X4890D02*
X4930D01*
Y4735D02*
X5170D01*
Y4815D01*
X4930D02*
X5170D01*
X4930Y4735D02*
Y4815D01*
D30*
X5348Y4194D02*
Y5424D01*
X5998Y4194D02*
Y5424D01*
X5348Y4194D02*
X5998D01*
X5348Y5424D02*
X5998D01*
X4250Y5600D02*
X4350D01*
Y5900D01*
X4250D02*
X4350D01*
X4250Y5600D02*
Y5900D01*
X4100Y3750D02*
X4400D01*
Y3650D02*
Y3750D01*
X4100Y3650D02*
X4400D01*
X4100D02*
Y3750D01*
X2600Y4200D02*
Y4500D01*
X2700D01*
Y4200D02*
Y4500D01*
X2600Y4200D02*
X2700D01*
X5031Y5491D02*
Y5441D01*
Y5466D01*
X5064D01*
Y5491D01*
Y5441D01*
X5106Y5491D02*
X5089D01*
X5081Y5483D01*
Y5449D01*
X5089Y5441D01*
X5106D01*
X5114Y5449D01*
Y5483D01*
X5106Y5491D01*
X5164Y5483D02*
X5156Y5491D01*
X5139D01*
X5131Y5483D01*
Y5474D01*
X5139Y5466D01*
X5156D01*
X5164Y5458D01*
Y5449D01*
X5156Y5441D01*
X5139D01*
X5131Y5449D01*
X5181Y5491D02*
X5214D01*
X5198D01*
Y5441D01*
X3658Y4666D02*
X3666Y4674D01*
X3683D01*
X3691Y4666D01*
Y4657D01*
X3683Y4649D01*
X3675D01*
X3683D01*
X3691Y4641D01*
Y4632D01*
X3683Y4624D01*
X3666D01*
X3658Y4632D01*
X3708Y4624D02*
Y4632D01*
X3716D01*
Y4624D01*
X3708D01*
X3750Y4666D02*
X3758Y4674D01*
X3775D01*
X3783Y4666D01*
Y4657D01*
X3775Y4649D01*
X3766D01*
X3775D01*
X3783Y4641D01*
Y4632D01*
X3775Y4624D01*
X3758D01*
X3750Y4632D01*
X3800Y4674D02*
Y4624D01*
Y4641D01*
X3833Y4674D01*
X3808Y4649D01*
X3833Y4624D01*
X4469Y4946D02*
X4486D01*
X4477D01*
Y4996D01*
X4469Y4988D01*
X4511D02*
X4519Y4996D01*
X4536D01*
X4544Y4988D01*
Y4954D01*
X4536Y4946D01*
X4519D01*
X4511Y4954D01*
Y4988D01*
X4561Y4996D02*
Y4946D01*
Y4963D01*
X4594Y4996D01*
X4569Y4971D01*
X4594Y4946D01*
X4551Y4745D02*
X4518D01*
X4551Y4778D01*
Y4787D01*
X4543Y4795D01*
X4526D01*
X4518Y4787D01*
X4568Y4745D02*
Y4795D01*
X4601Y4745D01*
Y4795D01*
X4643Y4745D02*
Y4795D01*
X4618Y4770D01*
X4651D01*
X4693Y4745D02*
Y4795D01*
X4668Y4770D01*
X4701D01*
X4718Y4787D02*
X4726Y4795D01*
X4743D01*
X4751Y4787D01*
Y4753D01*
X4743Y4745D01*
X4726D01*
X4718Y4753D01*
Y4787D01*
X4768Y4745D02*
X4785D01*
X4776D01*
Y4795D01*
X4768Y4787D01*
X4330Y5690D02*
X4322D01*
Y5698D01*
X4330D01*
Y5690D01*
X4288Y5732D02*
X4280Y5740D01*
Y5757D01*
X4288Y5765D01*
X4322D01*
X4330Y5757D01*
Y5740D01*
X4322Y5732D01*
X4288D01*
X4330Y5782D02*
Y5798D01*
Y5790D01*
X4280D01*
X4288Y5782D01*
X4293Y5957D02*
X4285Y5965D01*
X4268D01*
X4260Y5957D01*
Y5923D01*
X4268Y5915D01*
X4285D01*
X4293Y5923D01*
X4310Y5957D02*
X4318Y5965D01*
X4335D01*
X4343Y5957D01*
Y5948D01*
X4335Y5940D01*
X4327D01*
X4335D01*
X4343Y5932D01*
Y5923D01*
X4335Y5915D01*
X4318D01*
X4310Y5923D01*
X2563Y5302D02*
X2555Y5310D01*
X2538D01*
X2530Y5302D01*
Y5268D01*
X2538Y5260D01*
X2555D01*
X2563Y5268D01*
X2580Y5302D02*
X2588Y5310D01*
X2605D01*
X2613Y5302D01*
Y5293D01*
X2605Y5285D01*
X2613Y5277D01*
Y5268D01*
X2605Y5260D01*
X2588D01*
X2580Y5268D01*
Y5277D01*
X2588Y5285D01*
X2580Y5293D01*
Y5302D01*
X2588Y5285D02*
X2605D01*
X4225Y3670D02*
Y3678D01*
X4233D01*
Y3670D01*
X4225D01*
X4267D02*
X4283D01*
X4275D01*
Y3720D01*
X4267Y3712D01*
X4050Y3719D02*
X4042Y3727D01*
X4025D01*
X4017Y3719D01*
Y3685D01*
X4025Y3677D01*
X4042D01*
X4050Y3685D01*
X4067Y3677D02*
X4084D01*
X4075D01*
Y3727D01*
X4067Y3719D01*
X2671Y4319D02*
X2663D01*
Y4327D01*
X2671D01*
Y4319D01*
Y4361D02*
Y4377D01*
Y4369D01*
X2621D01*
X2629Y4361D01*
X2638Y4562D02*
X2630Y4570D01*
X2613D01*
X2605Y4562D01*
Y4528D01*
X2613Y4520D01*
X2630D01*
X2638Y4528D01*
X2688Y4520D02*
X2655D01*
X2688Y4553D01*
Y4562D01*
X2680Y4570D01*
X2663D01*
X2655Y4562D01*
X2913Y5052D02*
X2905Y5060D01*
X2888D01*
X2880Y5052D01*
Y5018D01*
X2888Y5010D01*
X2905D01*
X2913Y5018D01*
X2963Y5060D02*
X2930D01*
Y5035D01*
X2947Y5043D01*
X2955D01*
X2963Y5035D01*
Y5018D01*
X2955Y5010D01*
X2938D01*
X2930Y5018D01*
X2573Y4752D02*
X2565Y4760D01*
X2548D01*
X2540Y4752D01*
Y4718D01*
X2548Y4710D01*
X2565D01*
X2573Y4718D01*
X2623Y4760D02*
X2607Y4752D01*
X2590Y4735D01*
Y4718D01*
X2598Y4710D01*
X2615D01*
X2623Y4718D01*
Y4727D01*
X2615Y4735D01*
X2590D01*
X2923Y4732D02*
X2915Y4740D01*
X2898D01*
X2890Y4732D01*
Y4698D01*
X2898Y4690D01*
X2915D01*
X2923Y4698D01*
X2940Y4740D02*
X2973D01*
Y4732D01*
X2940Y4698D01*
Y4690D01*
X2583Y5042D02*
X2575Y5050D01*
X2558D01*
X2550Y5042D01*
Y5008D01*
X2558Y5000D01*
X2575D01*
X2583Y5008D01*
X2625Y5000D02*
Y5050D01*
X2600Y5025D01*
X2633D01*
X3334Y5726D02*
Y5676D01*
X3367D01*
X3417Y5726D02*
X3384D01*
Y5676D01*
X3417D01*
X3384Y5701D02*
X3401D01*
X3434Y5726D02*
Y5676D01*
X3459D01*
X3467Y5684D01*
Y5718D01*
X3459Y5726D01*
X3434D01*
X5001Y5345D02*
X4968D01*
X5001Y5378D01*
Y5387D01*
X4993Y5395D01*
X4976D01*
X4968Y5387D01*
X5051Y5345D02*
X5018D01*
X5051Y5378D01*
Y5387D01*
X5043Y5395D01*
X5026D01*
X5018Y5387D01*
X5068D02*
X5076Y5395D01*
X5093D01*
X5101Y5387D01*
Y5353D01*
X5093Y5345D01*
X5076D01*
X5068Y5353D01*
Y5387D01*
X4993Y5247D02*
Y5297D01*
X4968Y5272D01*
X5001D01*
X5018Y5297D02*
X5051D01*
Y5289D01*
X5018Y5255D01*
Y5247D01*
X5068Y5289D02*
X5076Y5297D01*
X5093D01*
X5101Y5289D01*
Y5255D01*
X5093Y5247D01*
X5076D01*
X5068Y5255D01*
Y5289D01*
X4997Y5145D02*
X4964D01*
X4997Y5178D01*
Y5187D01*
X4989Y5195D01*
X4972D01*
X4964Y5187D01*
X5047Y5145D02*
X5014D01*
X5047Y5178D01*
Y5187D01*
X5039Y5195D01*
X5022D01*
X5014Y5187D01*
X5064D02*
X5072Y5195D01*
X5089D01*
X5097Y5187D01*
Y5153D01*
X5089Y5145D01*
X5072D01*
X5064Y5153D01*
Y5187D01*
X4989Y5045D02*
Y5095D01*
X4964Y5070D01*
X4997D01*
X5014Y5095D02*
X5047D01*
Y5087D01*
X5014Y5053D01*
Y5045D01*
X5064Y5087D02*
X5072Y5095D01*
X5089D01*
X5097Y5087D01*
Y5053D01*
X5089Y5045D01*
X5072D01*
X5064Y5053D01*
Y5087D01*
X4998Y4647D02*
Y4697D01*
X4973Y4672D01*
X5006D01*
X5023Y4697D02*
X5056D01*
Y4689D01*
X5023Y4655D01*
Y4647D01*
X5073Y4689D02*
X5081Y4697D01*
X5098D01*
X5106Y4689D01*
Y4655D01*
X5098Y4647D01*
X5081D01*
X5073Y4655D01*
Y4689D01*
X5004Y4843D02*
X4971D01*
X5004Y4876D01*
Y4885D01*
X4996Y4893D01*
X4979D01*
X4971Y4885D01*
X5054Y4843D02*
X5021D01*
X5054Y4876D01*
Y4885D01*
X5046Y4893D01*
X5029D01*
X5021Y4885D01*
X5071D02*
X5079Y4893D01*
X5096D01*
X5104Y4885D01*
Y4851D01*
X5096Y4843D01*
X5079D01*
X5071Y4851D01*
Y4885D01*
X5000Y4947D02*
X4967D01*
X5000Y4980D01*
Y4989D01*
X4992Y4997D01*
X4975D01*
X4967Y4989D01*
X5050Y4947D02*
X5017D01*
X5050Y4980D01*
Y4989D01*
X5042Y4997D01*
X5025D01*
X5017Y4989D01*
X5067D02*
X5075Y4997D01*
X5092D01*
X5100Y4989D01*
Y4955D01*
X5092Y4947D01*
X5075D01*
X5067Y4955D01*
Y4989D01*
X3637Y3674D02*
X3654D01*
X3645D01*
Y3724D01*
X3637Y3716D01*
X3679D02*
X3687Y3724D01*
X3704D01*
X3712Y3716D01*
Y3682D01*
X3704Y3674D01*
X3687D01*
X3679Y3682D01*
Y3716D01*
X3729D02*
X3737Y3724D01*
X3754D01*
X3762Y3716D01*
Y3682D01*
X3754Y3674D01*
X3737D01*
X3729Y3682D01*
Y3716D01*
X3637Y3574D02*
X3654D01*
X3645D01*
Y3624D01*
X3637Y3616D01*
X3679D02*
X3687Y3624D01*
X3704D01*
X3712Y3616D01*
Y3582D01*
X3704Y3574D01*
X3687D01*
X3679Y3582D01*
Y3616D01*
X3729D02*
X3737Y3624D01*
X3754D01*
X3762Y3616D01*
Y3582D01*
X3754Y3574D01*
X3737D01*
X3729Y3582D01*
Y3616D01*
X4512Y4845D02*
X4529D01*
X4520D01*
Y4895D01*
X4512Y4887D01*
X4554Y4895D02*
Y4845D01*
Y4862D01*
X4587Y4895D01*
X4562Y4870D01*
X4587Y4845D01*
X3113Y5370D02*
X3080D01*
X3113Y5403D01*
Y5412D01*
X3105Y5420D01*
X3088D01*
X3080Y5412D01*
X3163Y5370D02*
X3130D01*
X3163Y5403D01*
Y5412D01*
X3155Y5420D01*
X3138D01*
X3130Y5412D01*
X3180D02*
X3188Y5420D01*
X3205D01*
X3213Y5412D01*
Y5378D01*
X3205Y5370D01*
X3188D01*
X3180Y5378D01*
Y5412D01*
X3411Y4037D02*
Y4087D01*
X3436D01*
X3444Y4079D01*
Y4062D01*
X3436Y4054D01*
X3411D01*
X3461Y4079D02*
X3469Y4087D01*
X3486D01*
X3494Y4079D01*
Y4070D01*
X3486Y4062D01*
X3494Y4054D01*
Y4045D01*
X3486Y4037D01*
X3469D01*
X3461Y4045D01*
Y4054D01*
X3469Y4062D01*
X3461Y4070D01*
Y4079D01*
X3469Y4062D02*
X3486D01*
X3511Y4087D02*
X3544Y4037D01*
Y4087D02*
X3511Y4037D01*
X3561Y4079D02*
X3569Y4087D01*
X3586D01*
X3594Y4079D01*
Y4070D01*
X3586Y4062D01*
X3578D01*
X3586D01*
X3594Y4054D01*
Y4045D01*
X3586Y4037D01*
X3569D01*
X3561Y4045D01*
X3644Y4037D02*
X3611D01*
X3644Y4070D01*
Y4079D01*
X3636Y4087D01*
X3619D01*
X3611Y4079D01*
X3661Y4037D02*
Y4070D01*
X3678Y4087D01*
X3694Y4070D01*
Y4037D01*
Y4062D01*
X3661D01*
X3711D02*
X3744D01*
X3761Y4087D02*
Y4037D01*
X3786D01*
X3794Y4045D01*
Y4079D01*
X3786Y4087D01*
X3761D01*
X3836Y4037D02*
Y4087D01*
X3811Y4062D01*
X3844D01*
X3861Y4079D02*
X3869Y4087D01*
X3886D01*
X3894Y4079D01*
Y4045D01*
X3886Y4037D01*
X3869D01*
X3861Y4045D01*
Y4079D01*
X2820Y4325D02*
X2787D01*
X2820Y4358D01*
Y4367D01*
X2812Y4375D01*
X2795D01*
X2787Y4367D01*
X2862Y4325D02*
Y4375D01*
X2837Y4350D01*
X2870D01*
X2887Y4375D02*
Y4325D01*
X2920D01*
X2970Y4367D02*
X2962Y4375D01*
X2945D01*
X2937Y4367D01*
Y4333D01*
X2945Y4325D01*
X2962D01*
X2970Y4333D01*
X3020Y4325D02*
X2987D01*
X3020Y4358D01*
Y4367D01*
X3012Y4375D01*
X2995D01*
X2987Y4367D01*
X3070Y4375D02*
X3037D01*
Y4350D01*
X3054Y4358D01*
X3062D01*
X3070Y4350D01*
Y4333D01*
X3062Y4325D01*
X3045D01*
X3037Y4333D01*
X3120Y4375D02*
X3104Y4367D01*
X3087Y4350D01*
Y4333D01*
X3095Y4325D01*
X3112D01*
X3120Y4333D01*
Y4342D01*
X3112Y4350D01*
X3087D01*
X4185Y4776D02*
X4152D01*
Y4751D01*
X4169Y4759D01*
X4177D01*
X4185Y4751D01*
Y4734D01*
X4177Y4726D01*
X4160D01*
X4152Y4734D01*
X4202Y4726D02*
Y4776D01*
X4219Y4759D01*
X4235Y4776D01*
Y4726D01*
X4252Y4776D02*
Y4726D01*
Y4751D01*
X4285D01*
Y4776D01*
Y4726D01*
X4302Y4759D02*
X4335D01*
X4302Y4726D01*
X4335D01*
X5542Y4169D02*
Y4136D01*
X5559Y4119D01*
X5575Y4136D01*
Y4169D01*
X5625Y4161D02*
X5617Y4169D01*
X5600D01*
X5592Y4161D01*
Y4127D01*
X5600Y4119D01*
X5617D01*
X5625Y4127D01*
Y4144D01*
X5609D01*
X5642Y4119D02*
Y4152D01*
X5659Y4169D01*
X5675Y4152D01*
Y4119D01*
Y4144D01*
X5642D01*
X5767Y4169D02*
X5750D01*
X5742Y4161D01*
Y4127D01*
X5750Y4119D01*
X5767D01*
X5775Y4127D01*
Y4161D01*
X5767Y4169D01*
X5792D02*
Y4127D01*
X5800Y4119D01*
X5817D01*
X5825Y4127D01*
Y4169D01*
X5842D02*
X5875D01*
X5859D01*
Y4119D01*
X3367Y4926D02*
Y4976D01*
X3384Y4959D01*
X3400Y4976D01*
Y4926D01*
X3417D02*
Y4959D01*
X3434Y4976D01*
X3450Y4959D01*
Y4926D01*
Y4951D01*
X3417D01*
X3467Y4976D02*
X3500Y4926D01*
Y4976D02*
X3467Y4926D01*
X3550D02*
X3517D01*
X3550Y4959D01*
Y4968D01*
X3542Y4976D01*
X3525D01*
X3517Y4968D01*
X3567D02*
X3575Y4976D01*
X3592D01*
X3600Y4968D01*
Y4959D01*
X3592Y4951D01*
X3584D01*
X3592D01*
X3600Y4943D01*
Y4934D01*
X3592Y4926D01*
X3575D01*
X3567Y4934D01*
X3650Y4926D02*
X3617D01*
X3650Y4959D01*
Y4968D01*
X3642Y4976D01*
X3625D01*
X3617Y4968D01*
X4997Y4746D02*
X4964D01*
X4997Y4779D01*
Y4788D01*
X4989Y4796D01*
X4972D01*
X4964Y4788D01*
X5047Y4746D02*
X5014D01*
X5047Y4779D01*
Y4788D01*
X5039Y4796D01*
X5022D01*
X5014Y4788D01*
X5064D02*
X5072Y4796D01*
X5089D01*
X5097Y4788D01*
Y4754D01*
X5089Y4746D01*
X5072D01*
X5064Y4754D01*
Y4788D01*
X4450Y5130D02*
Y5180D01*
X4475D01*
X4483Y5172D01*
Y5155D01*
X4475Y5147D01*
X4450D01*
X4467D02*
X4483Y5130D01*
X4500Y5180D02*
X4533Y5130D01*
Y5180D02*
X4500Y5130D01*
X4550D02*
X4583Y5163D01*
X4600Y5180D02*
X4633D01*
X4617D01*
Y5130D01*
X4650Y5180D02*
X4683Y5130D01*
Y5180D02*
X4650Y5130D01*
X3370Y5890D02*
Y5923D01*
X3353Y5907D02*
X3387D01*
X4597Y5193D02*
Y5243D01*
X4630Y5193D01*
Y5243D01*
X4647D02*
Y5201D01*
X4655Y5193D01*
X4672D01*
X4680Y5201D01*
Y5243D01*
X4697D02*
Y5193D01*
X4730D01*
X4747Y5243D02*
Y5193D01*
X4780D01*
X4440Y5237D02*
X4432Y5245D01*
X4415D01*
X4407Y5237D01*
Y5228D01*
X4415Y5220D01*
X4432D01*
X4440Y5212D01*
Y5203D01*
X4432Y5195D01*
X4415D01*
X4407Y5203D01*
X4457Y5245D02*
X4490D01*
X4474D01*
Y5195D01*
X4507Y5245D02*
Y5195D01*
X4532D01*
X4540Y5203D01*
Y5237D01*
X4532Y5245D01*
X4507D01*
M02*
