M48
;Layer_Color=134408
;FILE_FORMAT=2:3
INCH,TZ
;TYPE=PLATED
T1F00S00C0.016
T2F00S00C0.028
T3F00S00C0.029
T4F00S00C0.031
T5F00S00C0.033
T6F00S00C0.034
T7F00S00C0.035
T8F00S00C0.037
T9F00S00C0.043
T10F00S00C0.047
T11F00S00C0.053
T12F00S00C0.085
T13F00S00C0.115
T14F00S00C0.128
%
T01
X3109Y4418
X3089Y4664
X3003Y4668
X4906Y4750
X4584Y4909
X4486Y4911
X4617Y4993
X3710
X3144Y5154
X3288Y5746
X3043Y4709
T02
X3129Y4800
Y5100
X3350Y5850
X3450
X2779Y5400
X2700
Y5100
X2779
X3050
Y4800
X2779
X2700
T03
X2800Y4200
X2900
X3000
X3100
Y4500
X3000
X2900
X2800
X3350
X3450
X3550
X3650
X3750
X3850
X3950
X4050
X4150
X4250
X4350
X4450
X4550
X4650
Y4675
X4550
Y3900
X4450
X4350
X4250
X4150
X4050
X3950
X3850
X3750
X3650
X3550
X3450
X3350
X4650
X4750
X4850
X4950
X5050
X5150
X5250
Y4500
X5150
X5050
X4950
X4850
X4750
Y4675
X4050Y4800
X3950
X3850
X3750
X3650
X3550
X3450
X3350
Y5100
X3450
X3550
X3650
X3750
X3850
X3950
X4050
T04
X3595Y5245
X3695
X3795
X3895
X3995
X4095
T05
X2650Y4250
Y4450
X3550Y4650
X3950
X3900Y3700
Y3600
X4150Y3700
X4350
X3500
Y3600
X4850Y4675
X5250
Y4775
Y4875
Y4975
Y5075
Y5175
Y5275
Y5375
X4850
Y5275
Y5175
Y5075
Y4975
X4750
Y4875
X4850
Y4775
X4350Y4875
Y4975
X4300Y5650
Y5850
X3350Y5400
X2950
T06
X2933Y5801
X3012
X3091
Y5899
X3012
X2933
T07
X4150Y4650
X4350
X4724Y5316
Y5416
X4624
X4524
X4424
Y5316
X4524
X4624
T08
X2755Y3850
X2850
X2950
X3045
Y3950
X2755
T09
X5448Y4624
X5548Y4669
X5648Y4624
Y4714
Y4804
Y4894
Y4984
X5548Y4939
Y4849
Y4759
X5448Y4714
Y4804
Y4894
Y4984
X5338Y5570
X5229
X5120
X5011
X4902
X4956Y5682
X5065
X5175
X5284
T10
X5548Y5029
T11
X3210Y5850
X2810
T12
X2620Y3740
X2900Y3700
X3180Y3740
T13
X2580Y3580
X5920
Y5920
X2580
T14
X5548Y4322
Y5306
X5612Y5626
X4628
M30
