%FSLAX23Y23*%
%MOIN*%
G70*
G01*
G75*
G04 Layer_Physical_Order=1*
G04 Layer_Color=255*
%ADD10C,0.015*%
%ADD11C,0.010*%
%ADD12C,0.065*%
%ADD13C,0.075*%
%ADD14C,0.060*%
%ADD15C,0.070*%
%ADD16C,0.105*%
%ADD17C,0.140*%
%ADD18O,0.050X0.100*%
%ADD19C,0.055*%
%ADD20C,0.066*%
%ADD21R,0.059X0.059*%
%ADD22C,0.059*%
%ADD23R,0.050X0.100*%
%ADD24C,0.188*%
%ADD25C,0.187*%
%ADD26R,0.075X0.075*%
%ADD27R,0.065X0.065*%
%ADD28C,0.032*%
D10*
X3045Y3845D02*
Y3850D01*
X2904Y5446D02*
X2950Y5400D01*
X2700D02*
X2746Y5446D01*
X2755Y3850D02*
X2960Y4055D01*
X3129Y4800D02*
X3141D01*
X3129D02*
X3350Y5021D01*
X5548Y4759D02*
X5596Y4807D01*
Y5062D01*
X5567Y5091D02*
X5596Y5062D01*
X5383Y5091D02*
X5567D01*
X2904Y5446D02*
X2950Y5400D01*
X2746Y5446D02*
X2904D01*
X2950Y5400D02*
X3100Y5250D01*
X3316D01*
X3350Y5216D01*
Y5100D02*
Y5216D01*
X2960Y4055D02*
X3099D01*
X3141Y4097D01*
X3354Y5025D02*
X5317D01*
X5383Y5091D01*
X3129Y4800D02*
X3350Y5021D01*
X3354Y5025D01*
X3350Y5021D02*
Y5100D01*
X4350Y3700D02*
X4450Y3800D01*
Y3900D01*
X2800Y4500D02*
Y4620D01*
X4450Y3900D02*
Y4166D01*
X4416Y4200D02*
X4450Y4166D01*
X4192Y4200D02*
X4416D01*
X4150Y4242D02*
X4192Y4200D01*
X4150Y4242D02*
Y4500D01*
X2800D02*
Y4620D01*
X2848Y4668D02*
X3003D01*
X2800Y4620D02*
X2848Y4668D01*
X4114Y4589D02*
X4150Y4553D01*
Y4500D02*
Y4553D01*
X4011Y4589D02*
X4114D01*
X3950Y4650D02*
X4011Y4589D01*
X3141Y4097D02*
Y4800D01*
X2876Y5842D02*
X2933Y5899D01*
X2876Y5576D02*
Y5842D01*
X2746Y5446D02*
X2876Y5576D01*
X2650Y4450D02*
X2750D01*
X2800Y4500D01*
D11*
X3012Y5899D02*
X3061Y5850D01*
X3113D01*
X3595Y5368D01*
Y5245D02*
Y5368D01*
X4042Y5192D02*
X4095Y5245D01*
X3519Y5192D02*
X4042D01*
X3463Y5248D02*
X3519Y5192D01*
X3463Y5248D02*
Y5407D01*
X3379Y5491D02*
X3463Y5407D01*
X3322Y5491D02*
X3379D01*
X3012Y5801D02*
X3322Y5491D01*
X4350Y4500D02*
Y4650D01*
X5250Y4675D02*
Y4775D01*
Y5075D02*
Y5175D01*
Y5275D02*
Y5375D01*
X3550Y4500D02*
Y4650D01*
X3801Y4451D02*
X3850Y4500D01*
X3801Y3699D02*
Y4451D01*
X3995Y5245D02*
Y5345D01*
X4300Y5650D01*
X3350Y5808D02*
Y5850D01*
X3288Y5746D02*
X3350Y5808D01*
X4850Y4875D02*
X5150Y4575D01*
Y4500D02*
Y4575D01*
X4906Y4750D02*
X5000Y4656D01*
Y4437D02*
Y4656D01*
X4965Y4402D02*
X5000Y4437D01*
X4882Y4402D02*
X4965D01*
X4850Y4434D02*
X4882Y4402D01*
X4850Y4434D02*
Y4500D01*
X4624Y5416D02*
X4683Y5475D01*
X5025D01*
X5120Y5570D01*
X4524Y5416D02*
X4605Y5497D01*
X4949D02*
X5011Y5559D01*
X2779Y5100D02*
X2833Y5154D01*
X3144D01*
X4350Y4975D02*
X4376Y4949D01*
X4616D01*
X4650Y4915D01*
Y4675D02*
Y4915D01*
X5248Y4975D02*
X5250D01*
X4617Y4993D02*
X4699Y4911D01*
Y4638D02*
Y4911D01*
Y4638D02*
X4750Y4587D01*
Y4500D02*
Y4587D01*
X4550Y4675D02*
X4604Y4621D01*
X4702Y4088D02*
Y4549D01*
X4600Y3986D02*
X4702Y4088D01*
X4600Y3817D02*
Y3986D01*
X4416Y3633D02*
X4600Y3817D01*
X4325Y3633D02*
X4416D01*
X4284Y3674D02*
X4325Y3633D01*
X4284Y3674D02*
Y3780D01*
X4350Y3846D01*
Y3900D01*
X4550Y4500D02*
Y4587D01*
X4504Y4633D02*
X4550Y4587D01*
X4504Y4633D02*
Y4829D01*
X4584Y4909D01*
X3900Y3700D02*
Y4582D01*
X3875Y4607D02*
X3900Y4582D01*
X3776Y4607D02*
X3875D01*
X3750Y4581D02*
X3776Y4607D01*
X3750Y4500D02*
Y4581D01*
X3442Y4993D02*
X3710D01*
X3409Y4960D02*
X3442Y4993D01*
X3409Y4650D02*
Y4960D01*
Y4650D02*
X3450Y4609D01*
Y4500D02*
Y4609D01*
X5250Y4875D02*
X5327Y4798D01*
Y4600D02*
Y4798D01*
Y4600D02*
X5410Y4517D01*
X5680D01*
X5739Y4576D01*
Y4713D01*
X5648Y4804D02*
X5739Y4713D01*
X2764Y5953D02*
X3721D01*
X2576Y5765D02*
X2764Y5953D01*
X2576Y4427D02*
Y5765D01*
Y4427D02*
X2628Y4375D01*
X3068D01*
X3109Y4416D01*
Y4418D01*
X4150Y4650D02*
X4250Y4550D01*
Y4500D02*
Y4550D01*
X4850Y4975D02*
X5250Y4575D01*
Y4500D02*
Y4575D01*
X4950Y4500D02*
Y4650D01*
X4850Y4750D02*
X4950Y4650D01*
X4850Y4750D02*
Y4775D01*
X4538Y4407D02*
X4621D01*
X4499Y4446D02*
X4538Y4407D01*
X4499Y4446D02*
Y4575D01*
X4486Y4588D02*
X4499Y4575D01*
X4486Y4588D02*
Y4911D01*
X2779Y4800D02*
X2836Y4743D01*
X3064D01*
X3088Y4719D01*
Y4665D02*
Y4719D01*
Y4665D02*
X3089Y4664D01*
X2700Y4800D02*
X2791Y4709D01*
X3043D01*
X4605Y5497D02*
X4949D01*
X5248Y4975D02*
X5357Y4866D01*
Y4621D02*
Y4866D01*
Y4621D02*
X5429Y4549D01*
X5669D01*
X5706Y4586D01*
Y4656D01*
X5648Y4714D02*
X5706Y4656D01*
X4800Y4625D02*
X4850Y4675D01*
X4800Y4430D02*
Y4625D01*
Y4430D02*
X4873Y4357D01*
X4990D01*
X5050Y4417D01*
Y4500D01*
X4621Y4407D02*
X4650Y4436D01*
Y4500D01*
X3801Y3699D02*
X3900Y3600D01*
X4604Y4621D02*
X4630D01*
X4702Y4549D01*
X3721Y5953D02*
X3795Y5879D01*
Y5245D02*
Y5879D01*
X5011Y5559D02*
Y5570D01*
X2950Y3813D02*
Y3850D01*
Y3813D02*
X3163Y3600D01*
X3500D01*
X3401Y3700D02*
X3500D01*
X3152Y3949D02*
X3401Y3700D01*
X3046Y3949D02*
X3152D01*
X3045Y3950D02*
X3046Y3949D01*
X6000Y3500D02*
Y6000D01*
X2500D02*
X6000D01*
X2500Y3500D02*
Y6000D01*
Y3500D02*
X6000D01*
D12*
X5548Y4759D02*
D03*
X4750Y4675D02*
D03*
X3900Y3700D02*
D03*
X4650Y4675D02*
D03*
X3350Y5400D02*
D03*
X2950D02*
D03*
X5548Y4669D02*
D03*
Y4849D02*
D03*
Y4939D02*
D03*
X5448Y4624D02*
D03*
Y4714D02*
D03*
Y4804D02*
D03*
Y4894D02*
D03*
X5548Y5029D02*
D03*
X5648Y4984D02*
D03*
Y4894D02*
D03*
Y4804D02*
D03*
Y4714D02*
D03*
Y4624D02*
D03*
X4350Y4650D02*
D03*
X3450Y5850D02*
D03*
X3900Y3600D02*
D03*
X4850Y4975D02*
D03*
X5250D02*
D03*
Y4875D02*
D03*
X4850D02*
D03*
X5250Y4675D02*
D03*
X4850D02*
D03*
X5250Y5075D02*
D03*
X4850D02*
D03*
Y5175D02*
D03*
X5250D02*
D03*
Y5275D02*
D03*
X4850D02*
D03*
X5250Y5375D02*
D03*
X4850D02*
D03*
X4550Y4675D02*
D03*
X4350Y4875D02*
D03*
X4750D02*
D03*
X3500Y3600D02*
D03*
Y3700D02*
D03*
X5250Y4775D02*
D03*
X4850D02*
D03*
D13*
X5284Y5682D02*
D03*
X5229Y5570D02*
D03*
X5338D02*
D03*
X5175Y5682D02*
D03*
X5120Y5570D02*
D03*
X5065Y5682D02*
D03*
X5011Y5570D02*
D03*
X4956Y5682D02*
D03*
X3210Y5850D02*
D03*
X2810D02*
D03*
D14*
X3995Y5245D02*
D03*
X3895D02*
D03*
X3795D02*
D03*
X3695D02*
D03*
X3595D02*
D03*
X4095D02*
D03*
X2933Y5801D02*
D03*
X3012Y5899D02*
D03*
X2933D02*
D03*
X3091D02*
D03*
X3012Y5801D02*
D03*
X3091D02*
D03*
D15*
X2950Y3850D02*
D03*
X2850D02*
D03*
X3045D02*
D03*
X2755Y3950D02*
D03*
X3045D02*
D03*
X2755Y3850D02*
D03*
D16*
X2900Y3700D02*
D03*
X2620Y3740D02*
D03*
X3180D02*
D03*
D17*
X5920Y5920D02*
D03*
Y3580D02*
D03*
X2580D02*
D03*
Y5920D02*
D03*
D18*
X2800Y4500D02*
D03*
X4150D02*
D03*
X4450Y3900D02*
D03*
X3450D02*
D03*
X3550D02*
D03*
X3650D02*
D03*
X4750D02*
D03*
X3550Y5100D02*
D03*
X3650D02*
D03*
X3750D02*
D03*
X3850D02*
D03*
X4050Y3900D02*
D03*
X3950D02*
D03*
X3850D02*
D03*
X4150D02*
D03*
X4250D02*
D03*
X4550D02*
D03*
X4650D02*
D03*
X4850D02*
D03*
X5050D02*
D03*
X5150D02*
D03*
X5250D02*
D03*
X3350Y4500D02*
D03*
X3450D02*
D03*
X3650D02*
D03*
X3750D02*
D03*
X3850D02*
D03*
X3950D02*
D03*
X4050D02*
D03*
X4250D02*
D03*
X4350D02*
D03*
X4450D02*
D03*
X4550D02*
D03*
X4650D02*
D03*
X4750D02*
D03*
X4850D02*
D03*
X4950D02*
D03*
X5050D02*
D03*
X5150D02*
D03*
X5250D02*
D03*
X4350Y3900D02*
D03*
X4950D02*
D03*
X3550Y4500D02*
D03*
X2900Y4200D02*
D03*
X3000D02*
D03*
X3100D02*
D03*
X2900Y4500D02*
D03*
X3000D02*
D03*
X3100D02*
D03*
X3450Y4800D02*
D03*
X3550D02*
D03*
X3650D02*
D03*
X3750D02*
D03*
X3850D02*
D03*
X3950D02*
D03*
X4050D02*
D03*
X3350Y5100D02*
D03*
X3450D02*
D03*
X4050D02*
D03*
X3950D02*
D03*
X3750Y3900D02*
D03*
D19*
X3950Y4650D02*
D03*
X4750Y4975D02*
D03*
X3550Y4650D02*
D03*
X4350Y4975D02*
D03*
D20*
X2650Y4450D02*
D03*
X4350Y3700D02*
D03*
X4300Y5850D02*
D03*
Y5650D02*
D03*
X4150Y3700D02*
D03*
X2650Y4250D02*
D03*
D21*
X2700Y5400D02*
D03*
X3050Y4800D02*
D03*
X2700D02*
D03*
X3050Y5100D02*
D03*
X2700D02*
D03*
D22*
X2779Y5400D02*
D03*
X3129Y4800D02*
D03*
X2779D02*
D03*
X3129Y5100D02*
D03*
X2779D02*
D03*
X4424Y5316D02*
D03*
Y5416D02*
D03*
X4524Y5316D02*
D03*
Y5416D02*
D03*
X4624Y5316D02*
D03*
Y5416D02*
D03*
X4724Y5316D02*
D03*
Y5416D02*
D03*
D23*
X3350Y3900D02*
D03*
X2800Y4200D02*
D03*
X3350Y4800D02*
D03*
D24*
X5548Y5306D02*
D03*
Y4322D02*
D03*
D25*
X5612Y5626D02*
D03*
X4628D02*
D03*
D26*
X4902Y5570D02*
D03*
D27*
X5448Y4984D02*
D03*
X4150Y4650D02*
D03*
X3350Y5850D02*
D03*
D28*
X3003Y4668D02*
D03*
X3288Y5746D02*
D03*
X4906Y4750D02*
D03*
X3144Y5154D02*
D03*
X4617Y4993D02*
D03*
X4584Y4909D02*
D03*
X3710Y4993D02*
D03*
X3109Y4418D02*
D03*
X4486Y4911D02*
D03*
X3089Y4664D02*
D03*
X3043Y4709D02*
D03*
M02*
